<?xml version="1.0" encoding="UTF-8"?>
<!DOCTYPE svg PUBLIC "-//W3C//DTD SVG 1.0//EN" "http://www.w3.org/TR/2001/REC-SVG-20010904/DTD/svg10.dtd">
<!-- Creator: CorelDRAW 2020 (64-Bit) -->
<svg xmlns="http://www.w3.org/2000/svg" xml:space="preserve" width="85mm" height="30mm" version="1.0" style="shape-rendering:geometricPrecision; text-rendering:geometricPrecision; image-rendering:optimizeQuality; fill-rule:evenodd; clip-rule:evenodd"
viewBox="0 0 8500 3000"
 xmlns:xlink="http://www.w3.org/1999/xlink"
 xmlns:xodm="http://www.corel.com/coreldraw/odm/2003">
 <defs>
  <style type="text/css">
   <![CDATA[
    .str1 {stroke:#1F1B20;stroke-width:25;stroke-miterlimit:22.9256}
    .str0 {stroke:#1F1B20;stroke-width:20;stroke-miterlimit:22.9256}
    .fil1 {fill:none}
    .fil2 {fill:#2B2A29}
    .fil0 {fill:#1F1B20}
    .fil3 {fill:#1F1B20;fill-rule:nonzero}
   ]]>
  </style>
 </defs>
 <g id="Capa_x0020_1">
  <metadata id="CorelCorpID_0Corel-Layer"/>
  <path class="fil0" d="M1441.06 200.42c155.8,-126.87 683.47,122.44 981.59,519.89 341.83,404.93 487.47,1375.88 291.09,1524.67 16.54,-799.78 -2021.86,-1177.04 -1272.68,-2044.56z"/>
  <path class="fil0" d="M1555.5 164.49c67.93,0 -110.23,111.81 -205.08,338.96 -270.27,-103.49 -761.67,461.19 -272.19,1180.41 -78.19,257.39 -60.43,206.37 -140.56,382 -185.4,0 -428.29,-545.74 -428.29,-798.72 0,-252.98 33.89,-1220.06 1046.12,-1102.65z"/>
  <path class="fil0" d="M2412.73 2647.95c-29.76,-343.99 -482.54,-448.99 -639.97,-460.56 -48.46,0 -118.94,-61.93 -161.65,-143.87 -33.59,-104.96 -9.63,-200.15 -9.57,-377.87 43.78,-143.16 149.74,-299.22 149.74,-367.09 849.82,581.72 965.72,777.73 661.45,1349.39z"/>
  <path class="fil1 str0" d="M977.51 1547.06c70.92,124.06 185.58,196.4 353.13,229.96 157.14,-27.09 277.47,-108.3 355.72,-253.4"/>
  <path class="fil1 str0" d="M219.3 2562.62c121.82,-323.02 476.85,-258.4 716.08,-513.62"/>
  <rect class="fil2 str1" x="3484.52" y="215.51" width="61.73" height="2540"/>
  <path class="fil3" d="M4184.14 823.17l0 212.52 241.02 -251.47c11.57,-12.13 21.45,-21.02 29.5,-26.81 8.18,-5.78 19.05,-8.75 32.45,-8.75 17.64,0 32.03,5.23 42.9,15.53 10.86,10.3 16.23,22.86 16.23,37.81 0,17.93 -9.18,35.71 -27.66,53.34l-149.16 141.26 171.88 246.38c12.13,17.07 21.31,32.03 27.37,44.87 6.07,12.7 9.03,25.26 9.03,37.4 0,13.4 -5.36,25.11 -15.94,35.13 -10.58,9.88 -24.98,14.82 -43.18,14.82 -17.08,0 -31.05,-3.67 -41.77,-11.01 -10.72,-7.19 -19.76,-16.93 -27.23,-29.07 -7.48,-12.13 -14.12,-23.14 -19.9,-33.02l-145.06 -223.23 -100.48 96.23 0 125.31c0,25.4 -5.78,44.17 -17.35,56.45 -11.57,12.27 -26.53,18.34 -44.59,18.34 -10.59,0 -20.61,-2.82 -30.2,-8.33 -9.74,-5.5 -17.08,-12.84 -22.3,-22.29 -3.95,-7.62 -6.21,-16.65 -7.05,-26.81 -0.85,-10.16 -1.27,-24.98 -1.27,-44.17l0 -450.57c0,-24.84 5.5,-43.32 16.37,-55.74 10.86,-12.42 25.68,-18.63 44.45,-18.63 18.34,0 33.3,6.07 44.73,18.35 11.43,12.28 17.21,31.04 17.21,56.16z"/>
  <path id="1" class="fil3" d="M4810.82 823.03l0 173.71 265.01 0 0 -173.71c0,-24.69 5.65,-43.32 16.79,-55.74 11.15,-12.42 25.83,-18.63 44.03,-18.63 18.35,0 33.3,6.07 44.73,18.35 11.43,12.28 17.22,30.9 17.22,56.02l0 477.38c0,25.12 -5.79,43.75 -17.36,56.16 -11.57,12.42 -26.53,18.63 -44.59,18.63 -18.48,0 -33.3,-6.21 -44.31,-18.77 -11,-12.56 -16.51,-31.18 -16.51,-56.02l0 -203.76 -265.01 0 0 203.76c0,25.12 -5.78,43.75 -17.35,56.16 -11.57,12.42 -26.53,18.63 -44.59,18.63 -18.49,0 -33.31,-6.21 -44.31,-18.77 -11.01,-12.56 -16.51,-31.18 -16.51,-56.02l0 -477.38c0,-24.84 5.5,-43.32 16.37,-55.74 10.86,-12.42 25.68,-18.63 44.45,-18.63 18.34,0 33.3,6.07 44.73,18.35 11.43,12.28 17.21,31.04 17.21,56.02z"/>
  <path id="2" class="fil3" d="M5718.46 1296.32l-28.93 -76.06 -246.38 0 -28.93 77.61c-11.29,30.34 -20.89,50.8 -28.93,61.38 -7.9,10.59 -21.02,15.95 -39.23,15.95 -15.38,0 -29.07,-5.64 -40.92,-16.93 -11.85,-11.29 -17.78,-24.13 -17.78,-38.39 0,-8.32 1.41,-16.93 4.09,-25.68 2.82,-8.89 7.34,-21.02 13.69,-36.83l154.94 -393.42c4.52,-11.29 9.74,-24.83 15.95,-40.64 6.21,-15.94 12.84,-29.07 19.89,-39.51 7.06,-10.44 16.23,-18.91 27.66,-25.4 11.43,-6.49 25.54,-9.74 42.33,-9.74 17.22,0 31.47,3.25 42.9,9.74 11.43,6.49 20.6,14.82 27.66,24.98 7.06,10.16 12.98,21.16 17.78,32.88 4.8,11.71 11.01,27.37 18.34,46.85l158.33 391.02c12.42,29.77 18.63,51.36 18.63,64.91 0,13.97 -5.79,26.95 -17.5,38.66 -11.71,11.71 -25.96,17.5 -42.47,17.5 -9.6,0 -17.92,-1.69 -24.84,-5.22 -6.77,-3.39 -12.56,-8.04 -17.36,-13.97 -4.65,-5.93 -9.59,-15.1 -14.95,-27.24 -5.51,-12.27 -10.02,-23.14 -13.97,-32.45zm-243 -168.35l181.05 0 -91.3 -249.77 -89.75 249.77z"/>
  <path id="3" class="fil3" d="M6099.74 822.32l235.94 357.3 0 -360.68c0,-23.43 5.08,-40.92 15.1,-52.64 10.02,-11.71 23.57,-17.64 40.64,-17.64 17.5,0 31.47,5.79 41.63,17.5 10.16,11.71 15.24,29.35 15.24,52.78l0 476.53c0,53.2 -22.01,79.73 -66.04,79.73 -11.01,0 -20.89,-1.55 -29.78,-4.8 -8.74,-3.1 -17.07,-8.18 -24.69,-14.96 -7.76,-6.91 -14.82,-14.95 -21.45,-24.27 -6.63,-9.17 -13.26,-18.62 -19.9,-28.22l-230.15 -352.78 0 354.76c0,23.14 -5.36,40.64 -16.09,52.49 -10.86,11.85 -24.69,17.78 -41.48,17.78 -17.36,0 -31.33,-5.93 -41.77,-17.92 -10.59,-12 -15.81,-29.49 -15.81,-52.35l0 -467.37c0,-19.89 2.26,-35.41 6.64,-46.7 5.22,-12.42 13.97,-22.58 26.1,-30.48 12.14,-7.76 25.26,-11.72 39.23,-11.72 11.15,0 20.6,1.84 28.36,5.37 7.91,3.67 14.82,8.46 20.75,14.53 5.92,6.07 11.99,13.83 18.2,23.57 6.21,9.59 12.7,19.61 19.33,30.19z"/>
  <path id="4" class="fil3" d="M6566.82 1223.5l311.44 -372.39 -267.55 0c-18.77,0 -32.88,-4.09 -42.33,-12.42 -9.6,-8.32 -14.26,-19.19 -14.26,-32.73 0,-13.97 4.66,-25.4 14.26,-34.15 9.45,-8.61 23.56,-12.99 42.33,-12.99l344.88 0c44.59,0 66.88,20.89 66.88,62.52 0,19.89 -3.66,35.7 -11.14,47.55 -7.48,11.85 -22.44,31.05 -45.02,57.57l-291.11 346.29 320.89 0c18.91,0 33.16,3.95 42.47,11.86 9.46,7.76 14.11,18.76 14.11,32.88 0,14.53 -4.65,26.1 -14.11,34.71 -9.31,8.61 -23.56,12.84 -42.47,12.84l-393.71 0c-26.67,0 -46.84,-6.07 -60.25,-18.06 -13.55,-12 -20.32,-27.94 -20.32,-48.12 0,-6.92 1.13,-13.27 3.25,-19.05 2.25,-5.79 5.22,-11.29 8.89,-16.37 3.81,-5.08 8.89,-11.57 15.52,-19.33 6.63,-7.9 12.42,-14.82 17.35,-20.61z"/>
  <path id="5" class="fil3" d="M7517.64 1296.32l-28.93 -76.06 -246.38 0 -28.93 77.61c-11.29,30.34 -20.89,50.8 -28.93,61.38 -7.9,10.59 -21.02,15.95 -39.23,15.95 -15.38,0 -29.07,-5.64 -40.92,-16.93 -11.85,-11.29 -17.78,-24.13 -17.78,-38.39 0,-8.32 1.41,-16.93 4.09,-25.68 2.82,-8.89 7.34,-21.02 13.69,-36.83l154.94 -393.42c4.52,-11.29 9.74,-24.83 15.95,-40.64 6.21,-15.94 12.84,-29.07 19.89,-39.51 7.06,-10.44 16.23,-18.91 27.66,-25.4 11.43,-6.49 25.54,-9.74 42.33,-9.74 17.22,0 31.47,3.25 42.9,9.74 11.43,6.49 20.6,14.82 27.66,24.98 7.06,10.16 12.98,21.16 17.78,32.88 4.8,11.71 11.01,27.37 18.34,46.85l158.33 391.02c12.42,29.77 18.63,51.36 18.63,64.91 0,13.97 -5.79,26.95 -17.5,38.66 -11.71,11.71 -25.96,17.5 -42.47,17.5 -9.6,0 -17.92,-1.69 -24.84,-5.22 -6.77,-3.39 -12.56,-8.04 -17.36,-13.97 -4.65,-5.93 -9.59,-15.1 -14.95,-27.24 -5.51,-12.27 -10.02,-23.14 -13.97,-32.45zm-243 -168.35l181.05 0 -91.3 -249.77 -89.75 249.77z"/>
  <path id="6" class="fil3" d="M8199.21 1183.29c0,36.55 -9.46,69.43 -28.36,98.64 -18.77,29.21 -46.43,52.07 -82.84,68.58 -36.4,16.51 -79.58,24.69 -129.4,24.69 -59.83,0 -109.22,-11.29 -148.02,-33.73 -27.52,-16.22 -49.82,-37.95 -67.03,-65.05 -17.22,-27.09 -25.82,-53.48 -25.82,-79.16 0,-14.82 5.22,-27.52 15.52,-38.24 10.3,-10.59 23.42,-15.81 39.37,-15.81 12.98,0 23.85,4.09 32.74,12.42 9.03,8.18 16.65,20.46 23,36.83 7.62,19.19 16.08,35.42 24.97,48.26 9.04,12.98 21.59,23.71 37.82,32.17 16.37,8.33 37.68,12.56 64.21,12.56 36.26,0 65.9,-8.46 88.62,-25.4 22.71,-16.93 34.14,-38.1 34.14,-63.5 0,-20.18 -6.06,-36.55 -18.34,-48.96 -12.28,-12.56 -28.22,-22.16 -47.7,-28.79 -19.33,-6.63 -45.43,-13.69 -77.89,-21.17 -43.46,-10.16 -80.01,-22.15 -109.22,-35.7 -29.35,-13.69 -52.63,-32.31 -69.85,-55.88 -17.22,-23.56 -25.82,-52.77 -25.82,-87.91 0,-33.3 9.03,-62.94 27.23,-88.9 18.2,-25.82 44.59,-45.72 79.02,-59.69 34.44,-13.97 74.93,-20.89 121.5,-20.89 37.11,0 69.29,4.66 96.52,13.83 27.09,9.32 49.67,21.59 67.59,36.83 17.78,15.24 30.91,31.33 39.23,48.12 8.19,16.79 12.42,33.3 12.42,49.25 0,14.53 -5.22,27.8 -15.52,39.51 -10.3,11.71 -23.28,17.5 -38.67,17.5 -14.11,0 -24.69,-3.53 -32.03,-10.44 -7.34,-7.06 -15.24,-18.63 -23.71,-34.58 -11.14,-22.86 -24.27,-40.78 -39.79,-53.62 -15.38,-12.84 -40.22,-19.19 -74.51,-19.19 -31.6,0 -57.29,6.92 -76.62,20.89 -19.47,13.97 -29.21,30.62 -29.21,50.23 0,12.14 3.25,22.58 9.88,31.47 6.63,8.75 15.8,16.37 27.37,22.72 11.58,6.35 23.29,11.29 35.14,14.96 11.85,3.52 31.47,8.75 58.7,15.66 34.15,8.04 65.2,16.79 92.85,26.53 27.66,9.59 51.23,21.31 70.7,35.14 19.48,13.68 34.57,31.18 45.44,52.21 10.87,21.16 16.37,46.99 16.37,77.61z"/>
  <path id="7" class="fil3" d="M4577.14 2153.43c0,19.33 -4.66,40.22 -14.25,62.66 -9.46,22.43 -24.41,44.45 -44.88,66.04 -20.32,21.73 -46.42,39.22 -78.03,52.77 -31.75,13.41 -68.72,20.18 -110.91,20.18 -31.9,0 -60.96,-2.96 -87.21,-9.03 -26.11,-6.07 -49.95,-15.52 -71.26,-28.36 -21.31,-12.7 -41.07,-29.64 -58.99,-50.52 -15.94,-19.05 -29.63,-40.22 -40.92,-63.79 -11.29,-23.56 -19.76,-48.82 -25.4,-75.49 -5.64,-26.81 -8.47,-55.17 -8.47,-85.23 0,-48.68 7.06,-92.43 21.31,-130.95 14.11,-38.67 34.57,-71.69 60.96,-99.06 26.53,-27.38 57.43,-48.26 92.99,-62.66 35.56,-14.25 73.52,-21.45 113.74,-21.45 49.11,0 92.71,9.74 131.09,29.36 38.24,19.47 67.6,43.74 88.06,72.53 20.32,28.78 30.62,55.88 30.62,81.56 0,14.11 -5.08,26.39 -14.96,37.25 -9.88,10.73 -21.87,16.09 -35.98,16.09 -15.67,0 -27.52,-3.81 -35.28,-11.15 -7.9,-7.48 -16.65,-20.32 -26.25,-38.52 -16.08,-30.06 -34.85,-52.5 -56.44,-67.45 -21.73,-14.82 -48.26,-22.3 -80.01,-22.3 -50.52,0 -90.6,19.19 -120.51,57.43 -29.92,38.39 -44.88,92.86 -44.88,163.41 0,47.13 6.64,86.36 19.9,117.69 13.12,31.32 31.89,54.61 56.16,70.13 24.27,15.38 52.64,23.14 85.23,23.14 35.28,0 65.06,-8.75 89.47,-26.24 24.41,-17.5 42.76,-43.18 55.17,-77.19 5.23,-15.95 11.72,-28.93 19.48,-39.09 7.62,-10.02 20.04,-15.1 37.11,-15.1 14.68,0 27.23,5.08 37.68,15.38 10.44,10.16 15.66,22.86 15.66,37.96z"/>
  <path id="8" class="fil3" d="M5075.13 2276.2l-28.93 -76.06 -246.38 0 -28.93 77.61c-11.29,30.34 -20.89,50.8 -28.93,61.38 -7.9,10.59 -21.02,15.95 -39.23,15.95 -15.38,0 -29.07,-5.64 -40.92,-16.93 -11.85,-11.29 -17.78,-24.13 -17.78,-38.39 0,-8.32 1.41,-16.93 4.09,-25.68 2.82,-8.89 7.34,-21.02 13.69,-36.83l154.94 -393.42c4.52,-11.29 9.74,-24.83 15.95,-40.64 6.21,-15.94 12.84,-29.07 19.89,-39.51 7.06,-10.44 16.23,-18.91 27.66,-25.4 11.43,-6.49 25.54,-9.74 42.33,-9.74 17.22,0 31.47,3.25 42.9,9.74 11.43,6.49 20.6,14.82 27.66,24.98 7.06,10.16 12.98,21.16 17.78,32.88 4.8,11.71 11.01,27.37 18.34,46.85l158.33 391.02c12.42,29.77 18.63,51.36 18.63,64.91 0,13.97 -5.79,26.95 -17.5,38.66 -11.71,11.71 -25.96,17.5 -42.47,17.5 -9.6,0 -17.92,-1.69 -24.84,-5.22 -6.77,-3.39 -12.56,-8.04 -17.36,-13.97 -4.65,-5.93 -9.59,-15.1 -14.95,-27.24 -5.51,-12.27 -10.02,-23.14 -13.97,-32.45zm-243 -168.35l181.05 0 -91.3 -249.77 -89.75 249.77z"/>
  <path id="9" class="fil3" d="M5416.34 1802.91l0 441.26 248.92 0c19.75,0 34.99,4.79 45.58,14.39 10.72,9.74 15.94,21.87 15.94,36.41 0,14.81 -5.22,26.95 -15.66,36.12 -10.44,9.17 -25.82,13.83 -45.86,13.83l-296.48 0c-26.67,0 -45.86,-5.93 -57.57,-17.78 -11.71,-11.85 -17.64,-31.04 -17.64,-57.43l0 -466.8c0,-24.69 5.64,-43.32 16.79,-55.74 11.15,-12.42 25.83,-18.63 44.03,-18.63 18.34,0 33.3,6.07 44.73,18.35 11.43,12.28 17.22,31.04 17.22,56.02z"/>
  <path id="10" class="fil3" d="M5791.55 2203.38l311.44 -372.39 -267.55 0c-18.77,0 -32.88,-4.09 -42.33,-12.42 -9.6,-8.32 -14.26,-19.19 -14.26,-32.73 0,-13.97 4.66,-25.4 14.26,-34.15 9.45,-8.61 23.56,-12.99 42.33,-12.99l344.88 0c44.59,0 66.88,20.89 66.88,62.52 0,19.89 -3.66,35.7 -11.14,47.55 -7.48,11.85 -22.44,31.05 -45.02,57.57l-291.11 346.29 320.89 0c18.91,0 33.16,3.95 42.47,11.86 9.46,7.76 14.11,18.76 14.11,32.88 0,14.53 -4.65,26.1 -14.11,34.71 -9.31,8.61 -23.56,12.84 -42.47,12.84l-393.71 0c-26.67,0 -46.84,-6.07 -60.25,-18.06 -13.55,-12 -20.32,-27.94 -20.32,-48.12 0,-6.92 1.13,-13.27 3.25,-19.05 2.25,-5.79 5.22,-11.29 8.89,-16.37 3.81,-5.08 8.89,-11.57 15.52,-19.33 6.63,-7.9 12.42,-14.82 17.35,-20.61z"/>
  <path id="11" class="fil3" d="M6742.37 2276.2l-28.93 -76.06 -246.38 0 -28.93 77.61c-11.29,30.34 -20.89,50.8 -28.93,61.38 -7.9,10.59 -21.02,15.95 -39.23,15.95 -15.38,0 -29.07,-5.64 -40.92,-16.93 -11.85,-11.29 -17.78,-24.13 -17.78,-38.39 0,-8.32 1.41,-16.93 4.09,-25.68 2.82,-8.89 7.34,-21.02 13.69,-36.83l154.94 -393.42c4.52,-11.29 9.74,-24.83 15.95,-40.64 6.21,-15.94 12.84,-29.07 19.89,-39.51 7.06,-10.44 16.23,-18.91 27.66,-25.4 11.43,-6.49 25.54,-9.74 42.33,-9.74 17.22,0 31.47,3.25 42.9,9.74 11.43,6.49 20.6,14.82 27.66,24.98 7.06,10.16 12.98,21.16 17.78,32.88 4.8,11.71 11.01,27.37 18.34,46.85l158.33 391.02c12.42,29.77 18.63,51.36 18.63,64.91 0,13.97 -5.79,26.95 -17.5,38.66 -11.71,11.71 -25.96,17.5 -42.47,17.5 -9.6,0 -17.92,-1.69 -24.84,-5.22 -6.77,-3.39 -12.56,-8.04 -17.36,-13.97 -4.65,-5.93 -9.59,-15.1 -14.95,-27.24 -5.51,-12.27 -10.02,-23.14 -13.97,-32.45zm-243 -168.35l181.05 0 -91.3 -249.77 -89.75 249.77z"/>
  <path id="12" class="fil3" d="M7423.94 2163.17c0,36.55 -9.46,69.43 -28.36,98.64 -18.77,29.21 -46.43,52.07 -82.84,68.58 -36.4,16.51 -79.58,24.69 -129.4,24.69 -59.83,0 -109.22,-11.29 -148.02,-33.73 -27.52,-16.22 -49.82,-37.95 -67.03,-65.05 -17.22,-27.09 -25.82,-53.48 -25.82,-79.16 0,-14.82 5.22,-27.52 15.52,-38.24 10.3,-10.59 23.42,-15.81 39.37,-15.81 12.98,0 23.85,4.09 32.74,12.42 9.03,8.18 16.65,20.46 23,36.83 7.62,19.19 16.08,35.42 24.97,48.26 9.04,12.98 21.59,23.71 37.82,32.17 16.37,8.33 37.68,12.56 64.21,12.56 36.26,0 65.9,-8.46 88.62,-25.4 22.71,-16.93 34.14,-38.1 34.14,-63.5 0,-20.18 -6.06,-36.55 -18.34,-48.96 -12.28,-12.56 -28.22,-22.16 -47.7,-28.79 -19.33,-6.63 -45.43,-13.69 -77.89,-21.17 -43.46,-10.16 -80.01,-22.15 -109.22,-35.7 -29.35,-13.69 -52.63,-32.31 -69.85,-55.88 -17.22,-23.56 -25.82,-52.77 -25.82,-87.91 0,-33.3 9.03,-62.94 27.23,-88.9 18.2,-25.82 44.59,-45.72 79.02,-59.69 34.44,-13.97 74.93,-20.89 121.5,-20.89 37.11,0 69.29,4.66 96.52,13.83 27.09,9.32 49.67,21.59 67.59,36.83 17.78,15.24 30.91,31.33 39.23,48.12 8.19,16.79 12.42,33.3 12.42,49.25 0,14.53 -5.22,27.8 -15.52,39.51 -10.3,11.71 -23.28,17.5 -38.67,17.5 -14.11,0 -24.69,-3.53 -32.03,-10.44 -7.34,-7.06 -15.24,-18.63 -23.71,-34.58 -11.14,-22.86 -24.27,-40.78 -39.79,-53.62 -15.38,-12.84 -40.22,-19.19 -74.51,-19.19 -31.6,0 -57.29,6.92 -76.62,20.89 -19.47,13.97 -29.21,30.62 -29.21,50.23 0,12.14 3.25,22.58 9.88,31.47 6.63,8.75 15.8,16.37 27.37,22.72 11.58,6.35 23.29,11.29 35.14,14.96 11.85,3.52 31.47,8.75 58.7,15.66 34.15,8.04 65.2,16.79 92.85,26.53 27.66,9.59 51.23,21.31 70.7,35.14 19.48,13.68 34.57,31.18 45.44,52.21 10.87,21.16 16.37,46.99 16.37,77.61z"/>
 </g>
</svg>
